<?xml version="1.0" encoding="UTF-8"?>
<svg version="1.1" viewBox="0 0 2048 1282" width="631" height="395" xmlns="http://www.w3.org/2000/svg">
<path transform="translate(727,513)" d="m0 0 6 1 24 14 26 15 17 10 25 14 24 14 3 2v91l-1 1h-86l-1-1v-34h53v-36l-29-17-15-9-26-15-16-9-5 1-21 12-23 13-28 17-12 7v28l-1 1h-33v-50l17-10 26-15 49-29 26-15z" fill="#FEFEFE"/>
<path transform="translate(879,556)" d="m0 0h20l2 2 1 137 3 10 6 10 6 5 10 4 4 1h13l13-4 8-6 6-10 2-5 1-6 1-137 1-1h20l2 5v211l-2 19-5 13-7 11-8 8-16 8-11 3h-24l-14-5-10-6-9-9-6-9-6-16-1-5v-15h21l4 20 5 10 4 5 8 5 11 3h13l12-4 8-6 4-5 4-10 1-6 1-51-7 6-11 7-10 4-5 1h-13l-12-3-14-7-10-9-7-10-5-12-2-7-1-11v-131z" fill="#FEFEFE"/>
<path transform="translate(1436,556)" d="m0 0h19l2 1v133l3 12 5 10 7 7 8 4 8 2h12l13-4 8-6 6-10 3-12 1-21 1-115 1-1h20l1 1v217l-2 17-5 14-7 10-8 8-8 5-18 6h-25l-14-5-11-7-7-7-7-11-5-13-2-9v-13h21l1 1 2 15 4 11 4 5v2l4 2 9 5 8 2h13l10-3 8-5 6-7 4-9 2-16v-42l-7 6-9 6-8 4-8 2h-14l-12-3-14-7-10-9-6-9-4-8-4-14-1-78v-39l1-24z" fill="#FEFEFE"/>
<path transform="translate(608,640)" d="m0 0h86l1 3-1 31-1 1h-52l1 29 8 5 25 14 24 14 22 13 9 5 29-17 15-9 23-13 18-10h2v-14l1-11h34v43l-8 5-48 28-56 32-11 6-23-13-24-14-21-12-25-15-27-16-1-1z" fill="#FEFEFE"/>
<path transform="translate(1074,474)" d="m0 0h20l10 2 10 4 11 8 9 10 8 15 5 19 1 6v11l-2 1h-19l-2-2-4-23-4-11-6-9-9-6-14-3-14 1-11 4-8 6-6 12-1 4v21l4 13 7 12 11 12 10 10 11 9 13 11 14 12 12 12 9 13 8 16 4 15 1 8v14l-4 16-6 12-9 11-10 7-11 5-13 3-15 1-15-2-16-7-10-8-8-9-8-15-4-13-2-13v-11l3-1h18l2 1 4 24 4 11 6 9 8 6 10 4 5 1h12l13-3 9-5 8-9 4-13v-18l-4-15-7-13-8-10-6-7-8-7-14-12-11-9-10-9-17-17-7-10-8-16-4-16v-21l4-14 6-11 9-10 10-7 13-5z" fill="#FEFEFE"/>
<path transform="translate(520,552)" d="m0 0h12l12 2 10 4 10 7 5 4 7 10 5 10 3 14 1 15v75l-1 14-4 14-7 12-11 11-10 6-13 4-5 1h-20l-14-4-11-6-10-9-7-10-6-15-1-5v-22l4-12 6-11 8-9 13-8 11-4 14-2h40v-33l-2-9-6-11-8-6-10-4-6-1h-8l-9 2-8 5-8 9-4 11-2 11-1 1h-20l-1-1v-11l5-16 7-12 10-10 12-7 10-3zm3 107-14 2-11 7-6 7-4 9-1 5v12l3 11 6 10 8 7 10 4 6 1h10l9-2 8-4 6-5 6-9 3-11v-44z" fill="#FEFEFE"/>
<path transform="translate(1356,551)" d="m0 0 12 2 15 6 11 8 7 8 8 16 3 15v98l-4 16-8 13-8 9-11 7-11 4-9 2h-20l-16-5-10-6-10-9-7-11-5-14-1-7v-17l4-14 7-12 10-10 10-6 16-5 9-1h41v-28l-3-14-5-10-7-6-11-5-10-1-12 2-10 5-7 8-4 9-3 14-1 1h-20l-1-2v-7l4-16 7-13 9-10 10-7 8-4 4 1 1 4 14-7zm-8 108-12 2-9 6-5 5-5 7-3 11v9l2 10 5 10 6 7 6 4 9 3 5 1h10l12-3 9-6 7-9 4-11 1-7v-38l-1-1z" fill="#FEFEFE"/>
<path transform="translate(386,477)" d="m0 0h51l1 2v18l-1 1-41 1-13 1-10 4-10 9-7 13-2 9-1 67h74l1 1v20l-45 1h-22l-8-1 1 71 4 13 6 10 7 6 10 5 9 2 46 1 2 2v18l-1 1h-55l-12-3-12-6-10-8-8-10-7-14-3-11-1-10v-155l3-14 8-16 6-8 7-7 13-8 12-4z" fill="#FEFEFE"/>
<path transform="translate(1207,501)" d="m0 0h19l2 1v54h37l1 4v11l-2 6h-36l1 110 1 14 4 13 6 9 8 5 8 2 13 1 1 1v19l-4 2-16-1-11-3-11-6-6-5-7-10-5-11-3-12-1-9v-119h-27l-1-2v-18l1-1h27v-54z" fill="#FEFEFE"/>
</svg>
