<?xml version="1.0" encoding="UTF-8"?>
<svg version="1.1" viewBox="0 0 2048 611" width="439" height="131" xmlns="http://www.w3.org/2000/svg">
<path transform="translate(669,66)" d="m0 0 7 1 17 10 15 9 26 15 24 14 26 15 23 13 25 14 24 14 17 10 2 2v150l-105 1h-40l-1-1v-55l1-1h87l1-60-28-17-21-12-28-17-27-15-21-12-20-11-4 1-54 30-24 14-26 15-20 12-19 11-1 48h-54l-2-2v-77l1-3 18-10 22-13 26-15 28-16 20-12 22-13 28-16 22-13z" fill="#0F0E0F"/>
<path transform="translate(1844,138)" d="m0 0h31l4 1 1 216 2 17 5 15 7 11 10 10 14 7 14 3 11 1 18-3 13-5 9-7 8-9 8-16 3-13 1-17 1-210 1-1h34l1 1 1 31v298l-1 42-3 17-5 15-9 17-9 11-7 7-15 10-12 5-16 5-15 2h-18l-13-2-18-6-15-8-12-11-7-7-10-15-8-19-4-16-1-7v-16l2-2h33l2 11 3 18 5 13 6 10 8 8 14 8 8 3 7 1h21l10-2 14-6 9-7 7-8 6-12 3-11 2-18v-75l-8 9-13 10-12 7-15 5-13 2-17-1-16-4-18-8-11-7-12-11-9-12-8-15-6-18-2-12-1-63v-150l1-16z" fill="#131213"/>
<path transform="translate(538,277)" d="m0 0h43l32 1 1 1v53l-1 1h-88l1 50 8 5 28 16 43 24 27 16 25 15 11 7 5 2 8-5 17-10 23-14 20-12 21-12 27-15 17-10 10-5 1-2 1-38h57v71l-24 14-26 15-15 9-26 15-25 14-24 14-25 14-21 12-16 9-5-1-21-12-27-15-48-28-26-15-28-17-26-15-20-12-2-2-1-11v-126z" fill="#100F10"/>
<path transform="translate(920,138)" d="m0 0h32l4 1 1 224 3 15 8 16 7 9 11 9 10 5 14 3h15l18-4 13-7 10-9 7-11 6-18 1-12v-190l1-30h34v364l-2 21-6 18-7 13-7 9-7 8-11 8-16 8-14 5-12 2h-36l-6-2-1 1-8-1-16-7-12-9-10-10-10-14-7-15-6-20-2-15v-9l2-4h33l1 1 4 26 5 14 6 10 6 7 17 12 12 3h27l11-3 14-7 9-8 7-11 5-14 2-16 1-83-8 6-8 8-10 7-11 5-14 4-11 2-14-1-14-2-5 1-17-7-14-9-14-14-9-14-6-13-5-17-2-16v-222z" fill="#141314"/>
<path transform="translate(1258,1)" d="m0 0 18 1 15 3 12 4 13 7 12 9 10 10 7 10 9 16 7 19 5 26 1 7v12l-5 2-8 1h-17l-7-2-2-6-4-28-6-21-8-14-7-7-14-8-13-4-15-1-17 2-13 4-11 6-9 8-6 10-5 16-1 6v21l3 15 4 12 7 14 10 14 14 15 9 9 8 7 17 14 26 22 11 9 13 12 13 13 13 17 9 15 6 12 6 18 4 22 1 11v11l-3 20-5 16-8 15-10 13-9 8-14 9-12 6-17 5-23 3h-17l-19-3-16-6-14-8-10-8-13-13-11-18-8-19-5-19-2-13v-20l1-1h35l2 11 3 21 4 16 8 17 8 10 9 8 11 5 16 4 15 1 20-3 12-4 12-7 9-9 7-14 4-17v-24l-3-16-5-14-7-14-8-12-11-13-17-17-8-7-10-9-14-11-13-11-11-9-13-13-8-7-12-13-11-14-10-18-7-17-4-16-2-18v-16l4-20 8-19 8-12 9-10 9-8 14-8 17-6 18-4z" fill="#100F10"/>
<path transform="translate(326,131)" d="m0 0h15l16 2 18 6 15 8 10 8 9 9 7 10 8 16 4 13 3 22v152l-3 19-5 15-9 16-12 14-14 11-16 8-12 4-16 3h-27l-18-4-15-6-16-10-8-7-9-11-8-13-6-15-4-17-1-11v-14l3-16 4-12 7-14 10-13 7-7 13-9 14-7 14-4 15-3h75l-1-52-3-16-5-12-8-11-8-6-14-7-11-3h-22l-11 3-10 5-10 9-7 10-4 8-4 15-2 13-2 2h-31l-3-3-1-6 3-19 6-18 9-16 8-10 8-8 13-9 13-6 14-4zm6 177-19 2-10 3-10 6-10 9-7 10-5 12-2 10v14l3 15 5 12 7 11 8 8 10 6 12 4 12 2h12l16-3 12-5 8-6 7-7 6-9 5-13 2-14v-67z" fill="#100F10"/>
<path transform="translate(1700,131)" d="m0 0h14l21 3 16 6 11 6 12 9 7 7 9 13 8 17 4 13 2 12 1 18v132l-1 17-4 17-6 15-9 14-10 12-12 9-14 8-15 5-16 3h-28l-18-4-13-5-16-10-12-11-10-13-8-16-5-15-2-11-1-20 2-15 5-15 7-14 9-12 12-12 13-8 16-7 24-5h75l-1-47-2-16-6-16-7-10-9-8-17-8-8-2h-23l-13 4-10 6-7 6-9 13-5 12-4 23-1 1h-33l-2-3v-13l4-17 6-15 7-13 9-11 9-9 10-7 12-6 17-5zm8 177-21 2-10 3-11 6-11 10-6 10-5 12-1 6v22l4 16 6 11 8 10 9 7 11 5 12 3 7 1h12l15-3 12-5 9-6 8-9 7-12 4-14 1-10v-65z" fill="#111011"/>
<path transform="translate(101,7)" d="m0 0h84l2 1 1 21-1 11-1 1-16 1h-36l-30 1-14 3-10 5-10 8-7 7-8 14-5 13-2 10-1 10-1 101h124l1 1 1 11v21l-7 2h-119l1 106 2 16 4 13 6 12 8 11 10 8 16 8 8 2 9 1 72 1 5 2v32l-4 2h-74l-24-3-17-6-14-8-11-9-11-11-9-13-8-16-6-23-1-7-1-27v-225l1-16 5-21 8-19 9-13 9-10 7-7 15-10 12-6 18-5z" fill="#100F10"/>
<path transform="translate(1464,47)" d="m0 0h34l2 1v90h60l1 1 1 8v11l-1 13-12 1h-49l1 194 3 19 5 15 7 11 8 7 12 6 12 2 18 1 3 3 1 5v22l-3 5-1 1h-25l-18-4-13-6-10-6-12-11-9-13-8-16-5-17-2-13-1-12v-193h-42l-4-2-1-5v-24l2-3h45v-90z" fill="#0F0E0F"/>
</svg>
